<mxfile host="app.diagrams.net" modified="2023-10-13T05:18:49.656Z" agent="Mozilla/5.0 (Macintosh; Intel Mac OS X 10_15_7) AppleWebKit/537.36 (KHTML, like Gecko) Chrome/117.0.0.0 Safari/537.36" version="21.8.2" etag="3lxc4cOqc_uvcFaOU1Fg" type="github">
  <diagram name="Trang-1" id="ICXQcPuNNzXk3sC5XFYR">
    <mxGraphModel>
      <root>
        <mxCell id="0" />
        <mxCell id="1" parent="0" />
      </root>
    </mxGraphModel>
  </diagram>
</mxfile>
